<svg width="15" height="15" viewBox="0 0 15 15" fill="none" xmlns="http://www.w3.org/2000/svg">
<g clip-path="url(#clip0_159_65)">
<path d="M14.701 7.33696C14.701 8.0163 14.1575 8.55978 13.4782 8.55978H8.58687V13.1793C8.58687 13.8587 8.04339 14.4022 7.36405 14.4022C6.6847 14.4022 6.14122 13.8587 6.14122 13.1793V8.55978H1.52165C0.842306 8.55978 0.298828 8.0163 0.298828 7.33696C0.298828 6.65761 0.842306 6.11413 1.52165 6.11413H6.14122V1.22283C6.14122 0.543478 6.6847 0 7.36405 0C8.04339 0 8.58687 0.543478 8.58687 1.22283V6.11413H13.4782C14.1575 6.11413 14.701 6.65761 14.701 7.33696Z" fill="black"/>
</g>
<defs>
<clipPath id="clip0_159_65">
<rect width="15" height="15" fill="white"/>
</clipPath>
</defs>
</svg>
