<svg width="56" height="44" viewBox="0 0 56 44" fill="none" xmlns="http://www.w3.org/2000/svg">
<path fill-rule="evenodd" clip-rule="evenodd" d="M17.3333 16.6666C17.3333 10.7756 22.109 5.99996 28 5.99996C33.8909 5.99996 38.6667 10.7756 38.6667 16.6666V19.3333H41.3333C46.488 19.3333 50.6667 23.512 50.6667 28.6666C50.6667 33.8213 46.488 38 41.3333 38H38.6667C37.1939 38 36 39.1938 36 40.6666C36 42.1394 37.1939 43.3333 38.6667 43.3333H41.3333C49.4336 43.3333 56 36.7669 56 28.6666C56 21.4114 50.732 15.3865 43.8123 14.2086C42.6299 6.53897 36.0008 0.666626 28 0.666626C19.9993 0.666626 13.3702 6.53897 12.1876 14.2086C5.26803 15.3865 0 21.4114 0 28.6666C0 36.7669 6.56648 43.3333 14.6667 43.3333H17.3333C18.8061 43.3333 20 42.1394 20 40.6666C20 39.1938 18.8061 38 17.3333 38H14.6667C9.512 38 5.33333 33.8213 5.33333 28.6666C5.33333 23.512 9.512 19.3333 14.6667 19.3333H17.3333V16.6666ZM37.8856 25.4477L29.8856 17.4477C28.8443 16.4063 27.1557 16.4063 26.1144 17.4477L18.1144 25.4477C17.073 26.489 17.073 28.1776 18.1144 29.2189C19.1558 30.2602 20.8442 30.2602 21.8856 29.2189L25.3333 25.7712V40.6666C25.3333 42.1394 26.5272 43.3333 28 43.3333C29.4728 43.3333 30.6667 42.1394 30.6667 40.6666V25.7712L34.1144 29.2189C35.1557 30.2602 36.8443 30.2602 37.8856 29.2189C38.9269 28.1776 38.9269 26.489 37.8856 25.4477Z" fill="#BCBCBC"/>
</svg>
